<?xml version="1.0" encoding="utf-8"?>
<!-- Generator: Adobe Illustrator 21.1.0, SVG Export Plug-In . SVG Version: 6.00 Build 0)  -->
<svg version="1.1"
	 id="svg8" inkscape:version="0.92.1 r15371" sodipodi:docname="drawing_new_2_core.svg.2017_04_04_00_51_39.0.svg" xmlns:cc="http://creativecommons.org/ns#" xmlns:dc="http://purl.org/dc/elements/1.1/" xmlns:inkscape="http://www.inkscape.org/namespaces/inkscape" xmlns:rdf="http://www.w3.org/1999/02/22-rdf-syntax-ns#" xmlns:sodipodi="http://sodipodi.sourceforge.net/DTD/sodipodi-0.dtd" xmlns:svg="http://www.w3.org/2000/svg"
	 xmlns="http://www.w3.org/2000/svg" xmlns:xlink="http://www.w3.org/1999/xlink" x="0px" y="0px" viewBox="0 0 2834.6 5669.3"
	 style="enable-background:new 0 0 2834.6 5669.3;" xml:space="preserve">
<style type="text/css">
	.st0{fill:#DB0000;}
	.st1{fill:#0C0C0C;}
	.st2{font-family:'FuturaBT-Medium';}
	.st3{font-size:320px;}
	.st4{letter-spacing:6;}
	.st5{letter-spacing:-6;}
	.st6{letter-spacing:16;}
	.st7{letter-spacing:1;}
	.st8{letter-spacing:21;}
	.st9{fill:none;}
	.st10{font-family:'Roboto-Medium';}
	.st11{font-size:90px;}
	.st12{font-family:'FuturaBT-Book';}
	.st13{fill:#303030;}
	.st14{font-family:'Roboto-Regular';}
	.st15{font-size:80px;}
	.st16{fill:#F2F2F2;}
	.st17{fill:#E51010;stroke:#3A3A3A;stroke-width:6;stroke-miterlimit:10;}
	.st18{fill:#269B39;stroke:#3A3A3A;stroke-width:6;stroke-miterlimit:10;}
	.st19{font-size:69px;}
	.st20{opacity:0.38;}
	.st21{fill:#AFAFAF;}
	.st22{font-family:'Roboto-Light';}
	.st23{font-size:100px;}
	.st24{fill:none;stroke:#494949;stroke-width:6;stroke-miterlimit:10;}
	.st25{letter-spacing:13;}
	.st26{fill:#FFFFFF;stroke:#494949;stroke-width:6;stroke-miterlimit:10;}
	.st27{fill:#494949;}
	.st28{fill:none;stroke:#8497A5;stroke-width:7;stroke-miterlimit:10;}
	.st29{fill:#2B2B2B;}
	.st30{font-size:45px;}
	.st31{fill:none;stroke:#8497A5;stroke-width:4;stroke-miterlimit:10;}
	.st32{fill:#FFFFFF;stroke:#8497A5;stroke-width:4;stroke-miterlimit:10;}
	.st33{fill:#8497A5;}
	.st34{fill:none;stroke:#8497A5;stroke-width:5;stroke-miterlimit:10;}
</style>
<defs>
	
	
		<inkscape:perspective  id="perspective219" inkscape:persp3d-origin="500 : 666.66667 : 1" inkscape:vp_x="0 : 1000 : 1" inkscape:vp_y="0 : 1000 : 0" inkscape:vp_z="1000 : 1000 : 1" sodipodi:type="inkscape:persp3d">
		</inkscape:perspective>
</defs>
<sodipodi:namedview  bordercolor="#666666" borderopacity="1.0" id="base" inkscape:current-layer="layer1" inkscape:cx="2245.6908" inkscape:cy="4609.5868" inkscape:document-units="mm" inkscape:guide-bbox="true" inkscape:pageopacity="0.0" inkscape:pageshadow="2" inkscape:snap-bbox="true" inkscape:snap-global="true" inkscape:snap-page="true" inkscape:snap-text-baseline="true" inkscape:window-height="1017" inkscape:window-maximized="1" inkscape:window-width="1920" inkscape:window-x="-8" inkscape:window-y="-8" inkscape:zoom="0.22" pagecolor="#ffffff" showgrid="false" showguides="false">
	<sodipodi:guide  id="guide11169" inkscape:locked="false" orientation="1,0" position="110.83723,324.28595"></sodipodi:guide>
	<sodipodi:guide  id="guide11171" inkscape:locked="false" orientation="1,0" position="906.52964,324.28595"></sodipodi:guide>
	<sodipodi:guide  id="guide11173" inkscape:locked="false" orientation="0,1" position="692.22807,142.86771"></sodipodi:guide>
</sodipodi:namedview>
<g id="flowRoot3699" transform="scale(0.26458333)">
</g>
<g id="flowRoot3718" transform="scale(0.26458333)">
</g>
<g id="flowRoot3757" transform="matrix(0.87943938,0,0,0.87943938,45.393051,-658.08154)">
</g>
<g id="flowRoot172" transform="matrix(0.87943938,0,0,0.87943938,548.63208,-658.11226)">
</g>
<g id="flowRoot3745" transform="matrix(1.1124398,0,0,1.1897782,66.339641,-712.72595)">
</g>
<g id="text10650" transform="translate(-12.170834,-21.166667)">
	<g>
		<path id="path10654_8_" inkscape:connector-curvature="0" sodipodi:nodetypes="scccccscccscs" class="st0" d="M2221.5,239.3
			c-6.1,0-12,1.2-17.5,3.5v5.6c37.7,1.5,42.4,34.7,42.5,63.8c0.1,27.4-13.1,63-42.5,69.3v3.8c3.3,0.5,6.7,0.8,10.3,0.8
			c7.1,0,13.9-1.7,20.3-5c6.4-3.4,12-8.2,16.7-14.4c5.1-6.5,9-14.5,11.8-23.8c2.8-9.5,4.2-19.9,4.2-31.2c0-22.7-4-40.4-12.1-53.1
			C2247.2,245.7,2235.9,239.3,2221.5,239.3L2221.5,239.3z"/>
		<path id="path10663_8_" inkscape:connector-curvature="0" sodipodi:nodetypes="scccccscccscs" class="st0" d="M2294.5,212.9
			c-7.5,0-14.7,1.6-21.5,4.8v7.6c46.1,2,54.1,47.2,54.3,86.7c0.1,37.2-18.2,85.7-54.3,94.2v5.2c4,0.7,8.2,1.1,12.7,1.1
			c8.8,0,17-2.3,24.8-6.8c7.9-4.7,14.7-11.2,20.5-19.6c6.2-8.9,11-19.7,14.4-32.4c3.4-12.9,5.1-27,5.1-42.5
			c0-30.8-4.9-54.9-14.8-72.2C2326,221.6,2312.2,212.9,2294.5,212.9L2294.5,212.9z"/>
		<path id="path10665_8_" inkscape:connector-curvature="0" sodipodi:nodetypes="scccccscccscs" class="st0" d="M2373.1,186.1
			c-10.2,0-21.5,0.5-30.8,4.6v9.8c54.1-3.2,76.6,31.1,75.6,111.4c0.7,72.3-26.3,110.1-75.6,121v6.7c6.2,0.6,11.9,0.9,18,0.9
			c12,0,22.6-2.4,33.3-8.2c10.8-6,20.1-14.4,28-25.2c8.5-11.4,15.1-25.3,19.7-41.7c4.7-16.5,7-34.7,7-54.6
			c0-39.6-6.8-70.5-20.3-92.7C2414.6,195.7,2397.3,186.1,2373.1,186.1L2373.1,186.1z"/>
	</g>
</g>
<text transform="matrix(1 0 0 1 235.5598 372.0382)"><tspan x="0" y="0" class="st1 st2 st3 st4">S</tspan><tspan x="182" y="0" class="st1 st2 st3">m</tspan><tspan x="462" y="0" class="st1 st2 st3 st5">a</tspan><tspan x="642.2" y="0" class="st1 st2 st3 st6">r</tspan><tspan x="777" y="0" class="st1 st2 st3 st4">t t</tspan><tspan x="1086.8" y="0" class="st1 st2 st3 st7">r</tspan><tspan x="1206.5" y="0" class="st1 st2 st3 st4">a</tspan><tspan x="1399.2" y="0" class="st1 st2 st3 st8">f</tspan><tspan x="1518.3" y="0" class="st1 st2 st3 st4">f</tspan><tspan x="1622.6" y="0" class="st1 st2 st3 st5">i</tspan><tspan x="1699.8" y="0" class="st1 st2 st3 st4">c</tspan></text>
<defs>
	
	
		<inkscape:perspective  id="perspective219" inkscape:persp3d-origin="500 : 666.66667 : 1" inkscape:vp_x="0 : 1000 : 1" inkscape:vp_y="0 : 1000 : 0" inkscape:vp_z="1000 : 1000 : 1" sodipodi:type="inkscape:persp3d">
		</inkscape:perspective>
</defs>
<sodipodi:namedview  bordercolor="#666666" borderopacity="1.0" id="base" inkscape:current-layer="layer1" inkscape:cx="2245.6908" inkscape:cy="4609.5868" inkscape:document-units="mm" inkscape:guide-bbox="true" inkscape:pageopacity="0.0" inkscape:pageshadow="2" inkscape:snap-bbox="true" inkscape:snap-global="true" inkscape:snap-page="true" inkscape:snap-text-baseline="true" inkscape:window-height="1017" inkscape:window-maximized="1" inkscape:window-width="1920" inkscape:window-x="-8" inkscape:window-y="-8" inkscape:zoom="0.22" pagecolor="#ffffff" showgrid="false" showguides="false">
	<sodipodi:guide  id="guide11169" inkscape:locked="false" orientation="1,0" position="110.83723,324.28595"></sodipodi:guide>
	<sodipodi:guide  id="guide11171" inkscape:locked="false" orientation="1,0" position="906.52964,324.28595"></sodipodi:guide>
	<sodipodi:guide  id="guide11173" inkscape:locked="false" orientation="0,1" position="692.22807,142.86771"></sodipodi:guide>
</sodipodi:namedview>
<g id="flowRoot3699_1_" transform="scale(0.26458333)">
</g>
<g id="flowRoot3718_1_" transform="scale(0.26458333)">
</g>
<g id="flowRoot3757_1_" transform="matrix(0.87943938,0,0,0.87943938,45.393051,-658.08154)">
</g>
<g id="flowRoot172_1_" transform="matrix(0.87943938,0,0,0.87943938,548.63208,-658.11226)">
</g>
<g id="flowRoot3745_1_" transform="matrix(1.1124398,0,0,1.1897782,66.339641,-712.72595)">
</g>
<rect x="201.6" y="1763.9" class="st9" width="888" height="120"/>
<text transform="matrix(1 0 0 1 201.605 1832.0439)"><tspan x="0" y="0" class="st0 st10 st11 st7">Цель</tspan><tspan x="224" y="0" class="st0 st12 st11 st7"> </tspan><tspan x="252.4" y="0" class="st0 st10 st11 st7">проекта</tspan><tspan x="609.9" y="0" class="st0 st12 st11 st7">:</tspan></text>
<g>
	<rect x="201.6" y="5238.1" class="st9" width="888" height="191.6"/>
	<text transform="matrix(1 0 0 1 201.605 5298.0674)"><tspan x="0" y="0" class="st13 st14 st15 st7">Кудряшов Алексей</tspan><tspan x="0" y="100" class="st13 st14 st15 st7">Андреевич</tspan></text>
</g>
<g>
	<rect x="201.6" y="5103.1" class="st9" width="888" height="120"/>
	<text transform="matrix(1 0 0 1 201.605 5170.6118)" class="st0 st10 st11 st7">Команда</text>
</g>
<g>
	<rect x="1769.9" y="5238.1" class="st9" width="888" height="191.6"/>
	<text transform="matrix(1 0 0 1 1886.3884 5298.0664)"><tspan x="0" y="0" class="st13 st14 st15 st7">Моногаров Евгений </tspan><tspan x="188.5" y="100" class="st13 st14 st15 st7">Владимирович</tspan></text>
</g>
<g>
	<rect x="1769.9" y="5103.1" class="st9" width="888" height="120"/>
	<text transform="matrix(1 0 0 1 2031.51 5170.6118)" class="st0 st10 st11 st7">Руководитель</text>
</g>
<rect x="201.6" y="1913.4" class="st9" width="2483.4" height="323.1"/>
<text transform="matrix(1 0 0 1 201.6045 1973.4269)"><tspan x="0" y="0" class="st13 st14 st15 st7">разработать способ сокращения времени простоя </tspan><tspan x="0" y="110" class="st13 st14 st15 st7">автотранспорта на перекрёстках путем переключения сигнала </tspan><tspan x="0" y="220" class="st13 st14 st15 st7">светофора в зависимости от количества машин.</tspan></text>
<g>
	<rect x="201.6" y="4575" class="st9" width="2483.4" height="225"/>
	<text transform="matrix(1 0 0 1 201.605 4634.9766)"><tspan x="0" y="0" class="st13 st14 st15 st7">Машины собраны на основе конструктора Lego EV3. </tspan><tspan x="0" y="110" class="st13 st14 st15 st7">Светофор управляется блоком Lego NXT.</tspan></text>
</g>
<g>
	<defs>
		<rect id="SVGID_1_" x="0" y="550.8" width="2834.6" height="1037.6"/>
	</defs>
	<clipPath id="SVGID_2_">
		<use xlink:href="#SVGID_1_"  style="overflow:visible;"/>
	</clipPath>
	<g style="clip-path:url(#SVGID_2_);">
		
			<image style="overflow:visible;" width="3632" height="1729" xlink:href="../Obrabotka/IMG_6204_1.png"  transform="matrix(0.7805 0 0 0.7805 0 238.9664)">
		</image>
	</g>
</g>
<g>
	<rect x="235.6" y="2593" class="st16" width="2371.6" height="347.9"/>
	
		<rect x="1306.2" y="3234.8" transform="matrix(-1.836970e-16 1 -1 -1.836970e-16 5677.6143 1139.9375)" class="st16" width="1925.2" height="347.9"/>
	<path class="st17" d="M2225.5,2784.8c-12,0-21.8-12.1-21.8-26.9s9.8-26.9,21.8-26.9"/>
	<path class="st18" d="M2299.6,2805c0,12-12.1,21.8-26.9,21.8c-14.9,0-26.9-9.8-26.9-21.8"/>
	<rect x="514.1" y="2485.9" class="st9" width="163.4" height="52.8"/>
	<text transform="matrix(1 0 0 1 532.7778 2537.6604)" class="st13 st14 st19 st7">A++</text>
	<g class="st20">
		<rect x="906.7" y="2715.8" class="st9" width="345.6" height="98.4"/>
		<text transform="matrix(1 0 0 1 906.6521 2790.7837)" class="st21 st22 st23">zone A</text>
	</g>
	<polyline class="st24" points="2090.8,2446.5 2090.8,2593 235.6,2593 	"/>
	<polyline class="st24" points="2447.6,2446.5 2447.6,2593 2607.1,2593 	"/>
	<polyline class="st24" points="2090.8,4369.1 2090.8,2940.9 235.6,2940.9 	"/>
	<polyline class="st24" points="2447.6,4369.1 2447.6,2940.9 2607.1,2940.9 	"/>
	<rect x="1443.5" y="2485.9" class="st9" width="163.4" height="52.8"/>
	<text transform="matrix(1 0 0 1 1473.3191 2537.6604)"><tspan x="0" y="0" class="st13 st14 st19 st4">A</tspan><tspan x="51.9" y="0" class="st13 st14 st19 st25">-</tspan><tspan x="84.7" y="0" class="st13 st14 st19 st7">-</tspan></text>
	<rect x="1980" y="3968.1" class="st9" width="52.8" height="163.4"/>
	<text transform="matrix(0 -1 1 0 2031.7273 4111.835)" class="st13 st14 st19 st7">B++</text>
	<g class="st20">
		<rect x="2221.9" y="3318.5" class="st9" width="101.8" height="338.5"/>
		<text transform="matrix(0 -1 1 0 2296.948 3657.0156)" class="st21 st22 st23">zone B</text>
	</g>
	<rect x="1980" y="3143.3" class="st9" width="52.8" height="163.4"/>
	<text transform="matrix(0 -1 1 0 2031.7273 3275.9209)"><tspan x="0" y="0" class="st13 st14 st19 st4">B</tspan><tspan x="49.9" y="0" class="st13 st14 st19 st25">-</tspan><tspan x="82.7" y="0" class="st13 st14 st19 st7">-</tspan></text>
	<rect x="510" y="2718.8" class="st26" width="180.9" height="90.2"/>
	<path class="st27" d="M663.8,2718.8h-34.2c-2.6,0-4.7-2.1-4.7-4.7l0,0c0-2.6,2.1-4.7,4.7-4.7h34.2c2.6,0,4.7,2.1,4.7,4.7l0,0
		C668.5,2716.7,666.4,2718.8,663.8,2718.8z"/>
	<path class="st27" d="M572.3,2718.8h-34.2c-2.6,0-4.7-2.1-4.7-4.7l0,0c0-2.6,2.1-4.7,4.7-4.7h34.2c2.6,0,4.7,2.1,4.7,4.7l0,0
		C577,2716.7,574.9,2718.8,572.3,2718.8z"/>
	<path class="st27" d="M663.1,2819.9h-32.6c-3,0-5.4-2.4-5.4-5.4l0,0c0-3,2.4-5.4,5.4-5.4h32.6c3,0,5.4,2.4,5.4,5.4l0,0
		C668.5,2817.5,666.1,2819.9,663.1,2819.9z"/>
	<path class="st27" d="M571.6,2819.9h-32.6c-3,0-5.4-2.4-5.4-5.4l0,0c0-3,2.4-5.4,5.4-5.4h32.6c3,0,5.4,2.4,5.4,5.4l0,0
		C577,2817.5,574.6,2819.9,571.6,2819.9z"/>
	<path class="st24" d="M614.3,2718.8c23,0,41.7,20.2,41.7,45.1c0,24.9-18.7,45.1-41.7,45.1"/>
	<g>
		
			<rect x="2178.4" y="3781.2" transform="matrix(6.123234e-17 -1 1 6.123234e-17 -1557.47 6095.1465)" class="st26" width="180.9" height="90.2"/>
		<path class="st27" d="M2223.7,3763v34.2c0,2.6-2.1,4.7-4.7,4.7l0,0c-2.6,0-4.7-2.1-4.7-4.7V3763c0-2.6,2.1-4.7,4.7-4.7l0,0
			C2221.6,3758.3,2223.7,3760.4,2223.7,3763z"/>
		<path class="st27" d="M2223.7,3854.5v34.2c0,2.6-2.1,4.7-4.7,4.7l0,0c-2.6,0-4.7-2.1-4.7-4.7v-34.2c0-2.6,2.1-4.7,4.7-4.7l0,0
			C2221.6,3849.8,2223.7,3851.9,2223.7,3854.5z"/>
		<path class="st27" d="M2324.9,3763.8v32.6c0,3-2.4,5.4-5.4,5.4l0,0c-3,0-5.4-2.4-5.4-5.4v-32.6c0-3,2.4-5.4,5.4-5.4l0,0
			C2322.4,3758.3,2324.9,3760.7,2324.9,3763.8z"/>
		<path class="st27" d="M2324.9,3855.3v32.6c0,3-2.4,5.4-5.4,5.4l0,0c-3,0-5.4-2.4-5.4-5.4v-32.6c0-3,2.4-5.4,5.4-5.4l0,0
			C2322.4,3849.8,2324.9,3852.2,2324.9,3855.3z"/>
		<path class="st24" d="M2223.7,3812.5c0-23,20.2-41.7,45.1-41.7s45.1,18.7,45.1,41.7"/>
	</g>
	
		<rect x="2178.4" y="3134.5" transform="matrix(6.123234e-17 -1 1 6.123234e-17 -910.7456 5448.4224)" class="st26" width="180.9" height="90.2"/>
	<path class="st27" d="M2223.7,3116.2v34.2c0,2.6-2.1,4.7-4.7,4.7l0,0c-2.6,0-4.7-2.1-4.7-4.7v-34.2c0-2.6,2.1-4.7,4.7-4.7l0,0
		C2221.6,3111.6,2223.7,3113.7,2223.7,3116.2z"/>
	<path class="st27" d="M2223.7,3207.7v34.2c0,2.6-2.1,4.7-4.7,4.7l0,0c-2.6,0-4.7-2.1-4.7-4.7v-34.2c0-2.6,2.1-4.7,4.7-4.7l0,0
		C2221.6,3203.1,2223.7,3205.2,2223.7,3207.7z"/>
	<path class="st27" d="M2324.9,3117v32.6c0,3-2.4,5.4-5.4,5.4l0,0c-3,0-5.4-2.4-5.4-5.4V3117c0-3,2.4-5.4,5.4-5.4l0,0
		C2322.4,3111.6,2324.9,3114,2324.9,3117z"/>
	<path class="st27" d="M2324.9,3208.5v32.6c0,3-2.4,5.4-5.4,5.4l0,0c-3,0-5.4-2.4-5.4-5.4v-32.6c0-3,2.4-5.4,5.4-5.4l0,0
		C2322.4,3203.1,2324.9,3205.5,2324.9,3208.5z"/>
	<path class="st24" d="M2223.7,3165.8c0-23,20.2-41.7,45.1-41.7s45.1,18.7,45.1,41.7"/>
	<rect x="2225.8" y="2710.6" class="st26" width="94.4" height="94.4"/>
	<g>
		<line class="st28" x1="2176.3" y1="2757.4" x2="2191.7" y2="2757.4"/>
		<line class="st28" x1="2183.7" y1="2726.7" x2="2195.1" y2="2738.9"/>
		<line class="st28" x1="2183.7" y1="2789.1" x2="2195.1" y2="2777.1"/>
	</g>
	<g>
		<line class="st28" x1="2272.6" y1="2856" x2="2272.6" y2="2840.6"/>
		<line class="st28" x1="2241.4" y1="2848.2" x2="2253.6" y2="2836.9"/>
		<line class="st28" x1="2303.9" y1="2848.2" x2="2291.8" y2="2836.9"/>
	</g>
	<g>
		<rect x="867.8" y="3359.2" class="st9" width="216.2" height="73.9"/>
		<text transform="matrix(1 0 0 1 928.8472 3392.9297)" class="st29 st22 st30">А - В</text>
	</g>
	<g>
		<rect x="574.8" y="3316.2" class="st9" width="216.2" height="73.9"/>
		<text transform="matrix(1 0 0 1 652.4038 3349.9724)" class="st29 st22 st30">&gt; 0</text>
	</g>
	<g>
		<rect x="1154.9" y="3316.2" class="st9" width="216.2" height="73.9"/>
		<text transform="matrix(1 0 0 1 1232.7153 3349.9724)" class="st29 st22 st30">&lt; 0</text>
	</g>
	<g>
		<rect x="926.9" y="3508.5" class="st9" width="216.2" height="73.9"/>
		<text transform="matrix(1 0 0 1 1003.7705 3542.2793)" class="st29 st22 st30">= 0</text>
	</g>
	
		<rect x="899" y="3303" transform="matrix(0.7071 0.7071 -0.7071 0.7071 2675.783 299.9111)" class="st31" width="153.8" height="153.8"/>
	<polyline class="st31" points="571.9,4065.1 571.9,3379.9 867.1,3379.9 	"/>
	<path class="st32" d="M682.8,3691.4H463c-27,0-48.9-21.9-48.9-48.9v-48.1c0-27,21.9-48.9,48.9-48.9h219.8c27,0,48.9,21.9,48.9,48.9
		v48.1C731.8,3669.5,709.8,3691.4,682.8,3691.4z"/>
	<rect x="385.9" y="3574.3" class="st9" width="374" height="118.1"/>
	<text transform="matrix(1 0 0 1 477.5464 3608.0449)"><tspan x="0" y="0" class="st29 st22 st30">Красный</tspan><tspan x="81.6" y="52" class="st29 st22 st30">В</tspan></text>
	<path class="st32" d="M681.1,3959.1H464.7c-28,0-50.6-22.7-50.6-50.6v-44.7c0-28,22.7-50.6,50.6-50.6h216.4
		c28,0,50.6,22.7,50.6,50.6v44.7C731.8,3936.5,709.1,3959.1,681.1,3959.1z"/>
	<rect x="385.9" y="3842" class="st9" width="374" height="118.1"/>
	<text transform="matrix(1 0 0 1 478.7329 3875.7583)"><tspan x="0" y="0" class="st29 st22 st30">Зелёный</tspan><tspan x="80.1" y="52" class="st29 st22 st30">А</tspan></text>
	<polyline class="st31" points="1084.6,3379.9 1385.8,3379.9 1385.8,4065.1 	"/>
	<path class="st32" d="M1494.2,3691.4h-217.7c-26.2,0-47.4-21.2-47.4-47.4v-51c0-26.2,21.2-47.4,47.4-47.4h217.7
		c26.2,0,47.4,21.2,47.4,47.4v51C1541.7,3670.2,1520.4,3691.4,1494.2,3691.4z"/>
	<rect x="1229.1" y="3574.3" class="st9" width="312.6" height="118.1"/>
	<text transform="matrix(1 0 0 1 1290.0283 3608.0439)"><tspan x="0" y="0" class="st29 st22 st30">Красный</tspan><tspan x="81.3" y="52" class="st29 st22 st30">А</tspan></text>
	<path class="st32" d="M1496.3,3959.1h-221.9c-25,0-45.3-20.3-45.3-45.3v-55.3c0-25,20.3-45.3,45.3-45.3h221.9
		c25,0,45.3,20.3,45.3,45.3v55.3C1541.7,3938.8,1521.4,3959.1,1496.3,3959.1z"/>
	<rect x="1229.1" y="3842" class="st9" width="312.6" height="118.1"/>
	<text transform="matrix(1 0 0 1 1291.2148 3875.7578)"><tspan x="0" y="0" class="st29 st22 st30">Зелёный</tspan><tspan x="80.4" y="52" class="st29 st22 st30">В</tspan></text>
	<g>
		<g>
			<polyline class="st31" points="1385.8,4065.1 318.4,4065.1 318.4,3268.7 944.4,3268.7 			"/>
			<g>
				<polygon class="st33" points="931.2,3285 928.4,3282.1 942.9,3268.7 928.4,3255.3 931.2,3252.3 948.8,3268.7 				"/>
			</g>
		</g>
	</g>
	<line class="st31" x1="975.9" y1="3488.7" x2="975.9" y2="4065.1"/>
	<g>
		<rect x="1440.1" y="2568.9" class="st27" width="157.9" height="22.6"/>
		<path class="st34" d="M1541.7,2610.5c0,4.9-8.8,8.9-19.7,8.9s-19.7-4-19.7-8.9"/>
		<path class="st34" d="M1552,2633.3c0,6.1-13.4,11.1-30,11.1s-30-4.9-30-11.1"/>
		<path class="st34" d="M1564.3,2655.9c0,7.6-18.9,13.8-42.2,13.8c-23.3,0-42.2-6.2-42.2-13.8"/>
		<path class="st34" d="M1579,2679.8c0,9.6-25.5,17.3-57,17.3c-31.5,0-57-7.8-57-17.3"/>
		<path class="st34" d="M1597.9,2703.7c0,12.6-34,22.7-75.9,22.7s-75.9-10.2-75.9-22.7"/>
	</g>
	<g>
		
			<rect x="2000" y="4038.6" transform="matrix(6.123234e-17 -1 1 6.123234e-17 -1970.8862 6128.833)" class="st27" width="157.9" height="22.6"/>
		<path class="st34" d="M2109.3,4027.2c4.9,0,8.9,8.8,8.9,19.7c0,10.9-4,19.7-8.9,19.7"/>
		<path class="st34" d="M2132.1,4016.8c6.1,0,11.1,13.4,11.1,30c0,16.6-4.9,30-11.1,30"/>
		<path class="st34" d="M2154.7,4004.6c7.6,0,13.8,18.9,13.8,42.2c0,23.3-6.2,42.2-13.8,42.2"/>
		<path class="st34" d="M2178.6,3989.9c9.6,0,17.3,25.5,17.3,57s-7.8,57-17.3,57"/>
		<path class="st34" d="M2202.5,3970.9c12.6,0,22.7,34,22.7,75.9c0,41.9-10.2,75.9-22.7,75.9"/>
	</g>
	<g>
		<rect x="516.9" y="2568.9" class="st27" width="157.9" height="22.6"/>
		<path class="st34" d="M614.5,2610.7c0,4.9-8.8,8.9-19.7,8.9c-10.9,0-19.7-4-19.7-8.9"/>
		<path class="st34" d="M624.9,2627.1c0,6.1-13.4,11.1-30,11.1c-16.6,0-30-4.9-30-11.1"/>
		<path class="st34" d="M637.1,2643.2c0,7.6-18.9,13.8-42.2,13.8s-42.2-6.2-42.2-13.8"/>
	</g>
	<g>
		
			<rect x="1997.7" y="3210.6" transform="matrix(6.123234e-17 -1 1 6.123234e-17 -1145.2874 5298.5093)" class="st27" width="157.9" height="22.6"/>
		<path class="st34" d="M2107.2,3203.2c4.9,0,8.9,8.8,8.9,19.7c0,10.9-4,19.7-8.9,19.7"/>
		<path class="st34" d="M2123.5,3192.8c6.1,0,11.1,13.4,11.1,30s-4.9,30-11.1,30"/>
		<path class="st34" d="M2139.6,3180.6c7.6,0,13.8,18.9,13.8,42.2c0,23.3-6.2,42.2-13.8,42.2"/>
	</g>
	<g>
		<rect x="318.4" y="4103" class="st9" width="1066" height="69.5"/>
		<text transform="matrix(1 0 0 1 457.5855 4136.7417)" class="st29 st22 st30">Алгоритм переключения сфетофора</text>
	</g>
</g>
</svg>
